<mxfile host="65bd71144e">
    <diagram id="sJ1qRu7QmFdNHnU9pV_c" name="Page-1">
        <mxGraphModel dx="2912" dy="816" grid="1" gridSize="10" guides="1" tooltips="1" connect="1" arrows="1" fold="1" page="1" pageScale="1" pageWidth="2336" pageHeight="1654" math="0" shadow="0">
            <root>
                <mxCell id="0"/>
                <mxCell id="1" parent="0"/>
                <mxCell id="3" value="&lt;font style=&quot;font-size: 36px;&quot;&gt;Database Modeling&lt;/font&gt;" style="text;html=1;align=center;verticalAlign=middle;resizable=0;points=[];autosize=1;strokeColor=none;fillColor=none;" parent="1" vertex="1">
                    <mxGeometry x="40" y="20" width="330" height="60" as="geometry"/>
                </mxCell>
                <mxCell id="4" value="&lt;font style=&quot;font-size: 24px;&quot;&gt;Analyzing the data source&lt;br&gt;&lt;/font&gt;" style="text;html=1;align=center;verticalAlign=middle;resizable=0;points=[];autosize=1;strokeColor=none;fillColor=none;fontSize=36;" parent="1" vertex="1">
                    <mxGeometry x="40" y="70" width="300" height="60" as="geometry"/>
                </mxCell>
                <mxCell id="5" value="&lt;font style=&quot;font-size: 12px;&quot;&gt;What needs to be ETL from ENTSOE:&lt;br&gt;- Load&lt;br&gt;&lt;span style=&quot;white-space: pre;&quot;&gt;&#9;&lt;/span&gt;- Control Area&lt;br&gt;&lt;span style=&quot;white-space: pre;&quot;&gt;&#9;&lt;/span&gt;- Bidding Zone&lt;br&gt;&lt;span style=&quot;white-space: pre;&quot;&gt;&#9;&lt;/span&gt;- Country&lt;br&gt;&lt;span style=&quot;white-space: pre;&quot;&gt;&#9;&lt;span style=&quot;white-space: pre;&quot;&gt;&#9;&lt;/span&gt;-&lt;/span&gt;&amp;nbsp;Time&lt;br&gt;&lt;span style=&quot;white-space: pre;&quot;&gt;&#9;&lt;span style=&quot;white-space: pre;&quot;&gt;&#9;&lt;/span&gt;-&lt;/span&gt;&amp;nbsp;Actual&lt;br&gt;&lt;span style=&quot;white-space: pre;&quot;&gt;&#9;&lt;/span&gt;&lt;span style=&quot;white-space: pre;&quot;&gt;&#9;&lt;/span&gt;- Forecast (1 day)&lt;br&gt;- Generation&lt;br&gt;&lt;span style=&quot;white-space: pre;&quot;&gt;&#9;&lt;/span&gt;- Control Area&lt;br&gt;&lt;span style=&quot;white-space: pre;&quot;&gt;&#9;&lt;/span&gt;- Bidding Zone&lt;br&gt;&lt;span style=&quot;white-space: pre;&quot;&gt;&#9;&lt;/span&gt;- Country&lt;br&gt;&lt;span style=&quot;white-space: pre;&quot;&gt;&#9;&lt;/span&gt;&lt;span style=&quot;white-space: pre;&quot;&gt;&#9;&lt;/span&gt;- Time&lt;br&gt;&lt;span style=&quot;white-space: pre;&quot;&gt;&#9;&lt;/span&gt;&lt;span style=&quot;white-space: pre;&quot;&gt;&#9;&lt;/span&gt;- Actual&lt;br&gt;&lt;span style=&quot;white-space: pre;&quot;&gt;&#9;&lt;/span&gt;&lt;span style=&quot;white-space: pre;&quot;&gt;&#9;&lt;/span&gt;- Forecast (1 day)&lt;br&gt;&lt;br&gt;&lt;br&gt;&lt;br&gt;&lt;/font&gt;" style="text;html=1;align=left;verticalAlign=middle;resizable=0;points=[];autosize=1;strokeColor=none;fillColor=none;fontSize=24;" parent="1" vertex="1">
                    <mxGeometry x="70" y="160" width="230" height="530" as="geometry"/>
                </mxCell>
                <mxCell id="6" value="&lt;font style=&quot;font-size: 12px;&quot;&gt;What needs to be ETL from WHO:&lt;br&gt;- WHO:s COVID-19 Reponse&lt;br&gt;&lt;span style=&quot;white-space: pre;&quot;&gt;&#9;&lt;/span&gt;- Actions&lt;br&gt;&lt;span style=&quot;white-space: pre;&quot;&gt;&#9;&lt;/span&gt;&lt;span style=&quot;white-space: pre;&quot;&gt;&#9;&lt;/span&gt;- Information&lt;br&gt;&lt;span style=&quot;white-space: pre;&quot;&gt;&#9;&lt;/span&gt;&lt;span style=&quot;white-space: pre;&quot;&gt;&#9;&lt;/span&gt;- Advice&lt;br&gt;&lt;span style=&quot;white-space: pre;&quot;&gt;&#9;&lt;/span&gt;&lt;span style=&quot;white-space: pre;&quot;&gt;&#9;&lt;/span&gt;- Reponse&lt;br&gt;&lt;span style=&quot;white-space: pre;&quot;&gt;&#9;&lt;/span&gt;&lt;span style=&quot;white-space: pre;&quot;&gt;&#9;&lt;span style=&quot;white-space: pre;&quot;&gt;&#9;&lt;/span&gt;-&lt;/span&gt;&amp;nbsp;Time&lt;br&gt;&lt;span style=&quot;white-space: pre;&quot;&gt;&#9;&lt;/span&gt;&lt;span style=&quot;white-space: pre;&quot;&gt;&#9;&lt;/span&gt;&lt;span style=&quot;white-space: pre;&quot;&gt;&#9;&lt;/span&gt;- Event Name&lt;br&gt;&lt;br&gt;&lt;br&gt;&lt;br&gt;&lt;/font&gt;" style="text;html=1;align=left;verticalAlign=middle;resizable=0;points=[];autosize=1;strokeColor=none;fillColor=none;fontSize=24;" parent="1" vertex="1">
                    <mxGeometry x="320" y="160" width="210" height="330" as="geometry"/>
                </mxCell>
                <mxCell id="7" value="&lt;font style=&quot;font-size: 36px;&quot;&gt;ETL Architecture&lt;/font&gt;" style="text;html=1;align=center;verticalAlign=middle;resizable=0;points=[];autosize=1;strokeColor=none;fillColor=none;" parent="1" vertex="1">
                    <mxGeometry x="640" y="20" width="290" height="60" as="geometry"/>
                </mxCell>
                <mxCell id="8" value="&lt;font style=&quot;font-size: 24px;&quot;&gt;C: .&lt;/font&gt;" style="text;html=1;align=center;verticalAlign=middle;resizable=0;points=[];autosize=1;strokeColor=none;fillColor=none;" parent="1" vertex="1">
                    <mxGeometry x="680" y="160" width="60" height="40" as="geometry"/>
                </mxCell>
                <mxCell id="9" value="&lt;span style=&quot;font-size: 24px;&quot;&gt;1. source_to_raw&lt;/span&gt;" style="text;html=1;align=left;verticalAlign=middle;resizable=0;points=[];autosize=1;strokeColor=none;fillColor=none;" parent="1" vertex="1">
                    <mxGeometry x="780" y="200" width="210" height="40" as="geometry"/>
                </mxCell>
                <mxCell id="10" value="&lt;span style=&quot;font-size: 24px;&quot;&gt;2. raw_to_harmonized&lt;/span&gt;" style="text;html=1;align=left;verticalAlign=middle;resizable=0;points=[];autosize=1;strokeColor=none;fillColor=none;" parent="1" vertex="1">
                    <mxGeometry x="780" y="260" width="260" height="40" as="geometry"/>
                </mxCell>
                <mxCell id="11" value="&lt;span style=&quot;font-size: 24px;&quot;&gt;3. harmonized_to_cleansed&lt;/span&gt;" style="text;html=1;align=left;verticalAlign=middle;resizable=0;points=[];autosize=1;strokeColor=none;fillColor=none;" parent="1" vertex="1">
                    <mxGeometry x="780" y="320" width="320" height="40" as="geometry"/>
                </mxCell>
                <mxCell id="12" value="&lt;span style=&quot;font-size: 24px;&quot;&gt;4. create_a_database&lt;/span&gt;" style="text;html=1;align=left;verticalAlign=middle;resizable=0;points=[];autosize=1;strokeColor=none;fillColor=none;" parent="1" vertex="1">
                    <mxGeometry x="780" y="380" width="260" height="40" as="geometry"/>
                </mxCell>
                <mxCell id="13" value="&lt;span style=&quot;font-size: 24px;&quot;&gt;5. cleansed_to_database&lt;/span&gt;" style="text;html=1;align=left;verticalAlign=middle;resizable=0;points=[];autosize=1;strokeColor=none;fillColor=none;" parent="1" vertex="1">
                    <mxGeometry x="780" y="440" width="290" height="40" as="geometry"/>
                </mxCell>
                <mxCell id="14" value="&lt;span style=&quot;font-size: 24px;&quot;&gt;6. database_to_dash&lt;/span&gt;" style="text;html=1;align=left;verticalAlign=middle;resizable=0;points=[];autosize=1;strokeColor=none;fillColor=none;" parent="1" vertex="1">
                    <mxGeometry x="780" y="500" width="250" height="40" as="geometry"/>
                </mxCell>
                <mxCell id="15" value="&lt;span style=&quot;font-size: 24px;&quot;&gt;data&lt;/span&gt;" style="text;html=1;align=left;verticalAlign=middle;resizable=0;points=[];autosize=1;strokeColor=none;fillColor=none;" parent="1" vertex="1">
                    <mxGeometry x="780" y="560" width="70" height="40" as="geometry"/>
                </mxCell>
                <mxCell id="21" value="&lt;span style=&quot;font-size: 24px;&quot;&gt;raw&lt;/span&gt;" style="text;html=1;align=left;verticalAlign=middle;resizable=0;points=[];autosize=1;strokeColor=none;fillColor=none;" parent="1" vertex="1">
                    <mxGeometry x="875" y="620" width="60" height="40" as="geometry"/>
                </mxCell>
                <mxCell id="22" value="&lt;span style=&quot;font-size: 24px;&quot;&gt;harmonized&lt;/span&gt;" style="text;html=1;align=left;verticalAlign=middle;resizable=0;points=[];autosize=1;strokeColor=none;fillColor=none;" parent="1" vertex="1">
                    <mxGeometry x="875" y="680" width="150" height="40" as="geometry"/>
                </mxCell>
                <mxCell id="23" value="&lt;span style=&quot;font-size: 24px;&quot;&gt;cleansed&lt;/span&gt;" style="text;html=1;align=left;verticalAlign=middle;resizable=0;points=[];autosize=1;strokeColor=none;fillColor=none;" parent="1" vertex="1">
                    <mxGeometry x="875" y="740" width="120" height="40" as="geometry"/>
                </mxCell>
                <mxCell id="30" value="" style="group" parent="1" vertex="1" connectable="0">
                    <mxGeometry x="700" y="200" width="70" height="40" as="geometry"/>
                </mxCell>
                <mxCell id="24" value="" style="line;strokeWidth=2;html=1;fontSize=24;" parent="30" vertex="1">
                    <mxGeometry x="5" y="15" width="65" height="10" as="geometry"/>
                </mxCell>
                <mxCell id="28" value="" style="line;strokeWidth=2;html=1;fontSize=24;rotation=90;" parent="30" vertex="1">
                    <mxGeometry x="-15" y="15" width="40" height="10" as="geometry"/>
                </mxCell>
                <mxCell id="31" value="" style="group" parent="1" vertex="1" connectable="0">
                    <mxGeometry x="700" y="260" width="70" height="40" as="geometry"/>
                </mxCell>
                <mxCell id="32" value="" style="line;strokeWidth=2;html=1;fontSize=24;" parent="31" vertex="1">
                    <mxGeometry x="5" y="15" width="65" height="10" as="geometry"/>
                </mxCell>
                <mxCell id="33" value="" style="line;strokeWidth=2;html=1;fontSize=24;rotation=90;" parent="31" vertex="1">
                    <mxGeometry x="-15" y="15" width="40" height="10" as="geometry"/>
                </mxCell>
                <mxCell id="35" value="" style="group" parent="1" vertex="1" connectable="0">
                    <mxGeometry x="700" y="320" width="70" height="40" as="geometry"/>
                </mxCell>
                <mxCell id="36" value="" style="line;strokeWidth=2;html=1;fontSize=24;" parent="35" vertex="1">
                    <mxGeometry x="5" y="15" width="65" height="10" as="geometry"/>
                </mxCell>
                <mxCell id="37" value="" style="line;strokeWidth=2;html=1;fontSize=24;rotation=90;" parent="35" vertex="1">
                    <mxGeometry x="-15" y="15" width="40" height="10" as="geometry"/>
                </mxCell>
                <mxCell id="38" value="" style="group" parent="1" vertex="1" connectable="0">
                    <mxGeometry x="700" y="380" width="70" height="40" as="geometry"/>
                </mxCell>
                <mxCell id="39" value="" style="line;strokeWidth=2;html=1;fontSize=24;" parent="38" vertex="1">
                    <mxGeometry x="5" y="15" width="65" height="10" as="geometry"/>
                </mxCell>
                <mxCell id="40" value="" style="line;strokeWidth=2;html=1;fontSize=24;rotation=90;" parent="38" vertex="1">
                    <mxGeometry x="-15" y="15" width="40" height="10" as="geometry"/>
                </mxCell>
                <mxCell id="47" value="" style="group" parent="1" vertex="1" connectable="0">
                    <mxGeometry x="700" y="440" width="70" height="40" as="geometry"/>
                </mxCell>
                <mxCell id="48" value="" style="line;strokeWidth=2;html=1;fontSize=24;" parent="47" vertex="1">
                    <mxGeometry x="5" y="15" width="65" height="10" as="geometry"/>
                </mxCell>
                <mxCell id="49" value="" style="line;strokeWidth=2;html=1;fontSize=24;rotation=90;" parent="47" vertex="1">
                    <mxGeometry x="-15" y="15" width="40" height="10" as="geometry"/>
                </mxCell>
                <mxCell id="50" value="" style="group" parent="1" vertex="1" connectable="0">
                    <mxGeometry x="700" y="500" width="70" height="40" as="geometry"/>
                </mxCell>
                <mxCell id="51" value="" style="line;strokeWidth=2;html=1;fontSize=24;" parent="50" vertex="1">
                    <mxGeometry x="5" y="15" width="65" height="10" as="geometry"/>
                </mxCell>
                <mxCell id="52" value="" style="line;strokeWidth=2;html=1;fontSize=24;rotation=90;" parent="50" vertex="1">
                    <mxGeometry x="-15" y="15" width="40" height="10" as="geometry"/>
                </mxCell>
                <mxCell id="68" value="" style="group" parent="1" vertex="1" connectable="0">
                    <mxGeometry x="795" y="620" width="70" height="40" as="geometry"/>
                </mxCell>
                <mxCell id="69" value="" style="line;strokeWidth=2;html=1;fontSize=24;" parent="68" vertex="1">
                    <mxGeometry x="5" y="15" width="65" height="10" as="geometry"/>
                </mxCell>
                <mxCell id="70" value="" style="line;strokeWidth=2;html=1;fontSize=24;rotation=90;" parent="68" vertex="1">
                    <mxGeometry x="-15" y="15" width="40" height="10" as="geometry"/>
                </mxCell>
                <mxCell id="74" value="" style="group" parent="1" vertex="1" connectable="0">
                    <mxGeometry x="795" y="680" width="70" height="40" as="geometry"/>
                </mxCell>
                <mxCell id="75" value="" style="line;strokeWidth=2;html=1;fontSize=24;" parent="74" vertex="1">
                    <mxGeometry x="5" y="15" width="65" height="10" as="geometry"/>
                </mxCell>
                <mxCell id="76" value="" style="line;strokeWidth=2;html=1;fontSize=24;rotation=90;" parent="74" vertex="1">
                    <mxGeometry x="-15" y="15" width="40" height="10" as="geometry"/>
                </mxCell>
                <mxCell id="78" value="" style="line;strokeWidth=2;html=1;fontSize=24;" parent="1" vertex="1">
                    <mxGeometry x="800" y="755" width="65" height="10" as="geometry"/>
                </mxCell>
                <mxCell id="79" value="" style="line;strokeWidth=2;html=1;fontSize=24;rotation=90;" parent="1" vertex="1">
                    <mxGeometry x="792.5" y="742.5" width="15" height="10" as="geometry"/>
                </mxCell>
                <mxCell id="80" value="&lt;span style=&quot;font-size: 24px;&quot;&gt;dump&lt;br&gt;&lt;/span&gt;" style="text;html=1;align=left;verticalAlign=middle;resizable=0;points=[];autosize=1;strokeColor=none;fillColor=none;" parent="1" vertex="1">
                    <mxGeometry x="780" y="807" width="80" height="40" as="geometry"/>
                </mxCell>
                <mxCell id="87" value="" style="line;strokeWidth=2;html=1;fontSize=24;" parent="1" vertex="1">
                    <mxGeometry x="705" y="575" width="65" height="10" as="geometry"/>
                </mxCell>
                <mxCell id="88" value="" style="line;strokeWidth=2;html=1;fontSize=24;rotation=90;" parent="1" vertex="1">
                    <mxGeometry x="685" y="575" width="40" height="10" as="geometry"/>
                </mxCell>
                <mxCell id="94" value="" style="line;strokeWidth=2;html=1;fontSize=24;rotation=90;" parent="1" vertex="1">
                    <mxGeometry x="685" y="635" width="40" height="10" as="geometry"/>
                </mxCell>
                <mxCell id="95" value="" style="line;strokeWidth=2;html=1;fontSize=24;" parent="1" vertex="1">
                    <mxGeometry x="705" y="822" width="65" height="10" as="geometry"/>
                </mxCell>
                <mxCell id="96" value="" style="line;strokeWidth=2;html=1;fontSize=24;rotation=90;" parent="1" vertex="1">
                    <mxGeometry x="613.13" y="708.88" width="183.75" height="10" as="geometry"/>
                </mxCell>
            </root>
        </mxGraphModel>
    </diagram>
</mxfile>